/* XPM */
static char * kbe_xpm[] = {
"32 32 219 2",
"  	c None",
". 	c #894137",
"+ 	c #8F453B",
"@ 	c #8D463A",
"# 	c #92473C",
"$ 	c #944C44",
"% 	c #894135",
"& 	c #588A30",
"* 	c #68A240",
"= 	c #6EA848",
"- 	c #6CA547",
"; 	c #6BA546",
"> 	c #63993E",
", 	c #403D97",
"' 	c #3F3B98",
") 	c #3D3A8F",
"! 	c #9E4D42",
"~ 	c #AF6661",
"{ 	c #B16A67",
"] 	c #AC6561",
"^ 	c #60332D",
"/ 	c #9E5852",
"( 	c #B57171",
"_ 	c #B06966",
": 	c #793F39",
"< 	c #6B9653",
"[ 	c #84B971",
"} 	c #84B973",
"| 	c #85BA73",
"1 	c #83B86E",
"2 	c #76AE57",
"3 	c #659742",
"4 	c #25273D",
"5 	c #595AA8",
"6 	c #6565BD",
"7 	c #6565BC",
"8 	c #6463BA",
"9 	c #514FA8",
"0 	c #A35348",
"a 	c #B57272",
"b 	c #B67575",
"c 	c #AB6A69",
"d 	c #66352F",
"e 	c #AC6662",
"f 	c #B77677",
"g 	c #AF6B68",
"h 	c #562E29",
"i 	c #659054",
"j 	c #85B973",
"k 	c #85BA74",
"l 	c #86BA75",
"m 	c #86BB75",
"n 	c #87BB76",
"o 	c #88BC77",
"p 	c #70A356",
"q 	c #2A342D",
"r 	c #6162A8",
"s 	c #7172C3",
"t 	c #7273C4",
"u 	c #7374C5",
"v 	c #7476C5",
"w 	c #5E5DB2",
"x 	c #9B4D44",
"y 	c #B47271",
"z 	c #A46767",
"A 	c #7A403A",
"B 	c #B46F6E",
"C 	c #9D5853",
"D 	c #462421",
"E 	c #679452",
"F 	c #86BA74",
"G 	c #89BC78",
"H 	c #82B76D",
"I 	c #3D4F3C",
"J 	c #6162A6",
"K 	c #7274C4",
"L 	c #7475C5",
"M 	c #7576C6",
"N 	c #7678C6",
"O 	c #6160B5",
"P 	c #974C43",
"Q 	c #B47170",
"R 	c #A26463",
"S 	c #924E48",
"T 	c #B67475",
"U 	c #85423A",
"V 	c #71A05C",
"W 	c #77A36A",
"X 	c #78A26B",
"Y 	c #89BD79",
"Z 	c #86B973",
"` 	c #40543D",
" .	c #5E609F",
"..	c #7677C6",
"+.	c #7879C7",
"@.	c #7879C6",
"#.	c #6665BA",
"$.	c #984C41",
"%.	c #B4706F",
"&.	c #AB6866",
"*.	c #A95F5A",
"=.	c #AB645F",
"-.	c #7D372A",
";.	c #56754E",
">.	c #455A41",
",.	c #84B475",
"'.	c #86B874",
").	c #415440",
"!.	c #5E5F9C",
"~.	c #6666B4",
"{.	c #44438A",
"].	c #45438A",
"^.	c #97493F",
"/.	c #B67576",
"(.	c #B57374",
"_.	c #9F5248",
":.	c #83B772",
"<.	c #88BB77",
"[.	c #709A61",
"}.	c #597A4F",
"|.	c #86B777",
"1.	c #81AF71",
"2.	c #343F37",
"3.	c #5C5D98",
"4.	c #7A7BC8",
"5.	c #6363B0",
"6.	c #322F6B",
"7.	c #984A3F",
"8.	c #B47070",
"9.	c #B77676",
"0.	c #B06B69",
"a.	c #8E4034",
"b.	c #83B771",
"c.	c #87BB77",
"d.	c #88BC78",
"e.	c #81B26D",
"f.	c #81B26E",
"g.	c #8BBD7B",
"h.	c #80AC73",
"i.	c #58598F",
"j.	c #7D7ECA",
"k.	c #7A7AC8",
"l.	c #7777C2",
"m.	c #6463AB",
"n.	c #97483E",
"o.	c #A96764",
"p.	c #773A30",
"q.	c #78A66A",
"r.	c #81B073",
"s.	c #7DAC6D",
"t.	c #595B8F",
"u.	c #7C7DC9",
"v.	c #7F80CB",
"w.	c #7C7DC7",
"x.	c #6C6CB3",
"y.	c #6565AA",
"z.	c #B37373",
"A.	c #B67677",
"B.	c #B47576",
"C.	c #8B5959",
"D.	c #87BA77",
"E.	c #54714A",
"F.	c #597852",
"G.	c #8CBD7C",
"H.	c #76A561",
"I.	c #58598C",
"J.	c #7E7FCA",
"K.	c #8182CC",
"L.	c #6666AC",
"M.	c #A06260",
"N.	c #A66360",
"O.	c #B77778",
"P.	c #A76C6C",
"Q.	c #784B4B",
"R.	c #84B772",
"S.	c #88BA78",
"T.	c #6E9661",
"U.	c #729867",
"V.	c #8FC07F",
"W.	c #78A465",
"X.	c #535483",
"Y.	c #8384CD",
"Z.	c #7777BE",
"`.	c #7272AA",
" +	c #6868A2",
".+	c #9B4D43",
"++	c #B57170",
"@+	c #965F5F",
"#+	c #814D4A",
"$+	c #B67676",
"%+	c #8B5655",
"&+	c #83B570",
"*+	c #8ABD7A",
"=+	c #8DBF7D",
"-+	c #8FC07E",
";+	c #74A064",
">+	c #52547F",
",+	c #8687CF",
"'+	c #8989D0",
")+	c #8B8CD0",
"!+	c #7E7DC2",
"~+	c #A26665",
"{+	c #AA6F70",
"]+	c #985E5D",
"^+	c #713E39",
"/+	c #A66563",
"(+	c #985C5A",
"_+	c #844C47",
":+	c #7CAD6C",
"<+	c #86B775",
"[+	c #8ABB7B",
"}+	c #86B376",
"|+	c #79A36B",
"1+	c #50517B",
"2+	c #8282C9",
"3+	c #8081C3",
"4+	c #7F80BF",
"5+	c #8989C9",
"6+	c #7A7ABA",
"                                                                ",
"                                                                ",
"                                                                ",
"                                                                ",
"                                                                ",
"                                                                ",
"                                                                ",
"                                                                ",
"          . + @   # $ %   & * = - ; >       , ' )               ",
"        ! ~ { ] ^ / ( _ : < [ } | | 1 2 3 4 5 6 6 7 8 9         ",
"        0 a b c d e f g h i j k l m n o p q r s t u v w         ",
"        x y b z A B f C D E j F m n o G H I J K L M N O         ",
"        P Q b R S T y U   V j l n W X Y Z `  .L ..+.@.#.        ",
"        $.%.b &.*.f =.-.    j m n ;.>.,.'.).!...+.~.{.].        ",
"        ^.%././.(.b _.      :.n <.[.}.|.1.2.3.+.4.5.6.          ",
"        7.8./.9.f 0.a.      b.c.d.e.f.g.h.  i.4.j.k.l.m.        ",
"        n.8./.9.f o.p.      Z <.G q.r.s.    t.u.v.w.x.y.        ",
"        n.8./.z.A.B.C.      j d.D.E.F.G.H.  I.J.K.L.            ",
"        n.Q 9.M.N.O.P.Q.    R.d.S.T.U.V.W.  X.K.Y.Z.`. +        ",
"        .+++9.@+#+$+O.%+    &+G *+|.=+-+;+  >+Y.,+'+)+!+        ",
"          ~+{+]+^+/+(+_+    :+<+|.[+}+|+    1+2+3+4+5+6+        ",
"                                                                ",
"                                                                ",
"                                                                ",
"                                                                ",
"                                                                ",
"                                                                ",
"                                                                ",
"                                                                ",
"                                                                ",
"                                                                ",
"                                                                "};
